<svg xmlns="http://www.w3.org/2000/svg" xmlns:xlink="http://www.w3.org/1999/xlink" version="1.1" x="0px" y="0px" viewBox="-3 -3 262 262" enable-background="new 0 0 256 256" xml:space="preserve"><g id="deeditor_bgCarrier" stroke-width="0">
  <rect id="dee_c_e" x="-3" y="-3" width="262" height="262" rx="38.4" fill="#2f4a91" strokewidth="0"/>
</g>
<metadata fill="#ffffff"> Svg Vector Icons : http://www.onlinewebfonts.com/icon </metadata>
<g><g><path fill="#ffffff" d="M187.4,121.1c-2-4.3-5.2-7.6-8.7-10.6c-3.9-3.4-8.1-6.3-12.5-8.9c-5.7-3.7-11.7-7-17.6-10.3c-4.8-2.7-9.7-5.3-14.6-7.8c-14-7.1-28.2-13.6-43-19c-8.7-3.2-17.8-5.9-26.7-8.5c-0.8-0.2-7.2-2.1-7.4-1.8l-0.6,2.3l-0.7,3.6c-1,4-1.5,8.1-2.1,12.2c-0.5,2.8-0.7,5.7-1.2,8.5c-0.4,2.8-0.6,5.7-0.9,8.5c-0.3,3.4-0.7,6.8-1,10.1c-0.2,2.4-0.5,4.8-0.5,7.3c-0.1,3.8-0.2,7.7-0.7,11.5c-0.2,1.2,0,2.5,0,3.7c-0.3,8.5-0.3,17-0.3,25.5c0,0.5,0,0.9,0,1.4l0,0c0,1.9-0.1,3.8,0.1,5.7c0,0.2,0,0.5,0.1,0.7c0,4.9,0.2,9.8,0.5,14.7c0.2,3.5,0.3,7.1,0.6,10.6c0.4,4.5,0.9,9.1,1.4,13.6c0.3,2.3,0.6,4.7,0.9,7c0.1,1.2,0.7,1.4,1.8,1c0.2-0.1,0.5-0.1,0.7-0.1c6.2-1.6,12.4-3.2,18.6-4.8c14.7-4,28.8-9.6,42.5-16.1c21.3-10,41.6-21.7,60.4-35.8c3.7-2.8,7.3-5.7,9.8-9.7c1.6-2.5,2.7-5.1,2.6-8.1C189,125.2,188.3,123.1,187.4,121.1z M141.5,129.7c-2,2.2-4.7,3.6-7.2,5.3c-14.5,9.8-29.1,19.5-43.6,29.2c-1.7,1.1-3.3,2.4-5.2,3.1c-3.7,1.3-6.4-0.3-6.9-4.2c-0.5-3.5-0.2-7.1-0.2-10.6c-0.1-10.6-0.1-21.1-0.1-31.7c0.1-5.4,0-10.8-0.1-16.2c0-4.3,0-8.6,0-12.9c0-0.3,0-0.7,0-1c0.5-4.5,3.9-6.3,7.9-4c4.4,2.6,8.7,5.3,13.1,8c7.1,4.4,14.3,8.9,21.4,13.3c0.1,0.1,0.3,0.1,0.5,0.2l0,0c5.2,3.2,10.3,6.5,15.5,9.6c2,1.2,3.8,2.3,5.3,4.1C144,124.3,143.9,127.1,141.5,129.7z"/><path fill="#ffffff" d="M49.8,47.1c-4.8-1-9.7-1.6-14.5-0.9c-6.1,1-11,3.9-13.9,9.6c-2,3.9-3.3,8-4.3,12.2c-2.4,9.2-3.9,18.7-5,28.1c-0.9,7.2-1.6,14.4-1.8,21.6c-0.4,9.9,0.1,19.7,0.7,29.6c0.8,12.9,2.1,25.7,4.3,38.4c0.9,5.4,2.5,10.7,5.3,15.5c2.8,4.6,6.7,7.3,12.1,8c4.6,0.6,9.1,0,13.6-0.8c-0.3-2.6-0.7-5.2-1-7.7c-0.5-5-1.1-9.9-1.5-15c-0.3-3.9-0.4-7.8-0.7-11.7c-0.3-5.4-0.6-10.8-0.5-16.2c-0.2-0.2-0.2-0.5-0.1-0.8c-0.2-2.1-0.1-4.2-0.1-6.2c0-0.5,0-1,0-1.5c0-9.4,0-18.7,0.3-28.1c0-1.3-0.2-2.7,0-4c0.6-4.2,0.7-8.4,0.8-12.6c0.1-2.7,0.4-5.3,0.6-8c0.3-3.7,0.7-7.4,1.1-11.2c0.3-3.1,0.5-6.3,1-9.3c0.5-3.1,0.8-6.3,1.3-9.4c0.7-4.5,1.2-9,2.3-13.4l0.9-4.8C50.7,47.5,50.5,47.3,49.8,47.1z"/><path fill="#ffffff" d="M245.8,121.1c-0.7-5.4-3.8-9.7-7.1-13.8c-3.9-4.8-8.7-8.8-13.5-12.7c-3.4-2.7-6.9-5.4-10.6-7.7l0,0c-0.1-0.3-0.4-0.5-0.7-0.6c-2.3-1.5-4.5-3.1-6.8-4.6c-3.7-2.4-7.2-4.9-10.8-7.4c-6.2-4.2-12.6-7.9-19-11.8c-12.9-7.8-26.2-14.8-39.9-21.3c-12.1-5.8-24.5-10.9-37.3-15.1c-6.4-2.1-12.9-3.8-19.7-3.5c-8.8,0.5-15.6,4.3-20.3,11.8C57.9,38,57,42,56,45.9c-0.2,0.9,0.3,0.9,0.8,1.1c1.9,0.6,3.9,1.1,5.8,1.6c9.8,2.9,19.6,5.8,29.3,9.3c16.3,6,32,13.1,47.4,21c5.4,2.8,10.8,5.7,16.1,8.6c6.6,3.6,13.1,7.3,19.4,11.4c4.8,2.9,9.5,6.1,13.8,9.8c3.8,3.3,7.4,7,9.6,11.7c1,2.2,1.7,4.5,1.5,7c0.2,3.3-1.1,6.2-2.8,8.9c-2.8,4.4-6.7,7.6-10.8,10.6c-20.8,15.6-43.2,28.4-66.6,39.5c-15.1,7.2-30.7,13.3-46.8,17.7c-6.8,1.9-13.7,3.6-20.5,5.3c2,10.8,7.4,18.9,18.3,22.6c3.3,0.9,6.7,1.3,10.2,1.3c5.2,0,10.3-0.7,15.3-2c10.3-2.6,20.2-6.2,29.8-10.5c4.8-2.1,9.6-4.4,14.2-6.8c9.7-5,19-10.5,28.1-16.3c9.3-5.9,18.3-12.3,27-19c6.1-4.6,12.1-9.3,17.8-14.3c2.8-2.4,5.5-4.8,8.3-7.2c5.5-4.8,10.9-9.8,15.9-15.1c3.5-3.7,6.3-7.9,8.1-12.7C246.2,126.7,246.1,123.9,245.8,121.1z"/><path fill="#ffffff" d="M45.6,157.9c-0.2-0.2-0.2-0.5-0.1-0.8C45.6,157.4,45.6,157.6,45.6,157.9z"/></g></g>
</svg>